Normalized EMG Linear Envelopes
nRows=137
nColumns=4

endheader
time	 med_gas_r	  soleus_r	 tib_ant_r	
2.5625	  0.061872	  0.034993	  0.012185	
2.625	  0.072408	  0.035228	  0.013119	
2.6875	  0.078720	  0.035857	  0.013914	
2.75	  0.078550	  0.036816	  0.014301	
2.8125	  0.073794	  0.037525	  0.014188	
2.875	  0.069080	  0.037258	  0.013887	
2.9375	  0.067387	  0.035958	  0.013786	
3	  0.068651	  0.034498	  0.013928	
3.0625	  0.071762	  0.033693	  0.014111	
3.125	  0.075453	  0.033540	  0.014232	
3.1875	  0.077901	  0.033696	  0.014309	
3.25	  0.077484	  0.034010	  0.014321	
3.3125	  0.073917	  0.034371	  0.014186	
3.375	  0.068469	  0.034627	  0.013835	
3.4375	  0.063441	  0.034897	  0.013349	
3.5	  0.060909	  0.035486	  0.012972	
3.5625	  0.061633	  0.036376	  0.012870	
3.625	  0.065209	  0.037185	  0.013012	
3.6875	  0.070517	  0.037635	  0.013366	
3.75	  0.075392	  0.037846	  0.013987	
3.8125	  0.076929	  0.038284	  0.014707	
3.875	  0.073918	  0.039220	  0.014965	
3.9375	  0.068671	  0.039986	  0.014379	
4	  0.065132	  0.039480	  0.013350	
4.0625	  0.065622	  0.037579	  0.012662	
4.125	  0.069729	  0.035232	  0.012654	
4.1875	  0.074988	  0.033298	  0.013072	
4.25	  0.078523	  0.032105	  0.013525	
4.3125	  0.079252	  0.031688	  0.013870	
4.375	  0.078226	  0.031786	  0.014107	
4.4375	  0.076717	  0.032029	  0.014137	
4.5	  0.075549	  0.032321	  0.013836	
4.5625	  0.075663	  0.032604	  0.013234	
4.625	  0.076925	  0.032504	  0.012544	
4.6875	  0.077422	  0.031672	  0.012146	
4.75	  0.076057	  0.030430	  0.012481	
4.8125	  0.074542	  0.030175	  0.013932	
4.875	  0.076158	  0.033670	  0.016862	
4.9375	  0.085409	  0.044970	  0.021630	
5	  0.109723	  0.068000	  0.028539	
5.0625	  0.157540	  0.104052	  0.037706	
5.125	  0.230219	  0.151022	  0.048727	
5.1875	  0.314962	  0.205487	  0.060303	
5.25	  0.389243	  0.262859	  0.070178	
5.3125	  0.435860	  0.314403	  0.075941	
5.375	  0.454054	  0.350560	  0.076887	
5.4375	  0.458953	  0.370548	  0.075226	
5.5	  0.474102	  0.383350	  0.074539	
5.5625	  0.518577	  0.399552	  0.077242	
5.625	  0.592753	  0.425759	  0.083963	
5.6875	  0.677925	  0.461206	  0.093844	
5.75	  0.752267	  0.496046	  0.104303	
5.8125	  0.803712	  0.517324	  0.112006	
5.875	  0.828765	  0.517297	  0.115376	
5.9375	  0.826749	  0.495560	  0.115150	
6	  0.799382	  0.457284	  0.112354	
6.0625	  0.754363	  0.411430	  0.107296	
6.125	  0.704753	  0.369811	  0.100581	
6.1875	  0.663206	  0.345549	  0.093808	
6.25	  0.639202	  0.346678	  0.088991	
6.3125	  0.636285	  0.368191	  0.087196	
6.375	  0.645672	  0.394017	  0.087572	
6.4375	  0.650474	  0.410660	  0.088313	
6.5	  0.641789	  0.416713	  0.088469	
6.5625	  0.626048	  0.416004	  0.088372	
6.625	  0.616232	  0.409133	  0.089126	
6.6875	  0.617894	  0.398841	  0.091656	
6.75	  0.624424	  0.393264	  0.095352	
6.8125	  0.626273	  0.396984	  0.098534	
6.875	  0.621144	  0.407107	  0.100469	
6.9375	  0.613765	  0.418494	  0.101355	
7	  0.609661	  0.425996	  0.100712	
7.0625	  0.610112	  0.424376	  0.097652	
7.125	  0.611629	  0.412417	  0.092620	
7.1875	  0.610030	  0.395670	  0.087388	
7.25	  0.604446	  0.380951	  0.083317	
7.3125	  0.596870	  0.370561	  0.080844	
7.375	  0.589510	  0.363407	  0.080147	
7.4375	  0.584130	  0.357345	  0.081031	
7.5	  0.583313	  0.351276	  0.082865	
7.5625	  0.590825	  0.348268	  0.085347	
7.625	  0.610228	  0.354544	  0.088709	
7.6875	  0.642635	  0.374433	  0.092936	
7.75	  0.683816	  0.406181	  0.097162	
7.8125	  0.724618	  0.441395	  0.100480	
7.875	  0.756259	  0.469005	  0.103396	
7.9375	  0.772553	  0.480215	  0.106809	
8	  0.768582	  0.472083	  0.109415	
8.0625	  0.745129	  0.450423	  0.108871	
8.125	  0.714386	  0.426876	  0.105515	
8.1875	  0.691049	  0.408808	  0.101822	
8.25	  0.674959	  0.393456	  0.098539	
8.3125	  0.653140	  0.373792	  0.094492	
8.375	  0.620947	  0.349042	  0.089944	
8.4375	  0.590260	  0.327616	  0.087233	
8.5	  0.576005	  0.319061	  0.087731	
8.5625	  0.582381	  0.324919	  0.090286	
8.625	  0.601795	  0.338615	  0.092851	
8.6875	  0.622172	  0.351707	  0.093891	
8.75	  0.632411	  0.357505	  0.092480	
8.8125	  0.622907	  0.351844	  0.088827	
8.875	  0.590407	  0.336214	  0.084573	
8.9375	  0.545501	  0.318867	  0.081674	
9	  0.508299	  0.308624	  0.081189	
9.0625	  0.494649	  0.308682	  0.082744	
9.125	  0.504579	  0.316844	  0.084497	
9.1875	  0.521891	  0.328445	  0.084572	
9.25	  0.530796	  0.338463	  0.083057	
9.3125	  0.532357	  0.343737	  0.081957	
9.375	  0.538991	  0.345671	  0.083253	
9.4375	  0.557206	  0.349535	  0.087155	
9.5	  0.581301	  0.358010	  0.091983	
9.5625	  0.601348	  0.365908	  0.095572	
9.625	  0.610550	  0.364195	  0.096290	
9.6875	  0.604320	  0.348848	  0.092981	
9.75	  0.578121	  0.322135	  0.085328	
9.8125	  0.527484	  0.286078	  0.074320	
9.875	  0.451826	  0.241115	  0.061526	
9.9375	  0.360830	  0.191107	  0.048631	
10	  0.271550	  0.143586	  0.037869	
10.0625	  0.197482	  0.105166	  0.031714	
10.125	  0.144542	  0.079052	  0.032377	
10.1875	  0.113368	  0.064950	  0.041024	
10.25	  0.099617	  0.059507	  0.055487	
10.3125	  0.095314	  0.058187	  0.070350	
10.375	  0.094068	  0.058345	  0.081234	
10.4375	  0.093764	  0.059841	  0.086765	
10.5	  0.094127	  0.062229	  0.086337	
10.5625	  0.094521	  0.063401	  0.079594	
10.625	  0.094259	  0.061703	  0.068445	
10.6875	  0.092723	  0.057530	  0.056717	
10.75	  0.089203	  0.052541	  0.047541	
10.8125	  0.084239	  0.048709	  0.042239	
10.875	  0.080346	  0.047246	  0.039735	
10.9375	  0.080100	  0.046955	  0.035887	
11	  0.084076	  0.045007	  0.026442	
11.0625	  0.090728	  0.040540	  0.011728	
